<?xml version="1.0" encoding="utf-8"?>
<!-- Generator: Adobe Illustrator 22.0.1, SVG Export Plug-In . SVG Version: 6.00 Build 0)  -->
<svg version="1.1" id="Layer_1" xmlns="http://www.w3.org/2000/svg" xmlns:xlink="http://www.w3.org/1999/xlink" x="0px" y="0px"
	 viewBox="0 0 424 172" style="enable-background:new 0 0 424 172;" xml:space="preserve">
<style type="text/css">
	.st0{fill:#231F20;}
	.st1{font-family:'BalboaPlus-Inline';}
	.st2{font-size:100.648px;}
	.st3{letter-spacing:-3;}
	.st4{font-family:'BalboaPlus-Fill';}
	.st5{clip-path:url(#SVGID_2_);fill:none;stroke:#231F20;stroke-width:3;}
</style>
<text transform="matrix(0.999 -4.361912e-02 4.361912e-02 0.999 3.881 133.3987)"><tspan x="0" y="0" class="st0 st1 st2">SPI</tspan><tspan x="114.2" y="0" class="st0 st1 st2 st3">C</tspan><tspan x="154.1" y="0" class="st0 st1 st2">Y</tspan></text>
<text transform="matrix(0.999 -4.361912e-02 4.361912e-02 0.999 203.276 124.693)" class="st0 st4 st2">BURNZ</text>
<g>
	<defs>
		<rect id="SVGID_1_" x="-130.3" y="9.4" width="688.5" height="155.7"/>
	</defs>
	<clipPath id="SVGID_2_">
		<use xlink:href="#SVGID_1_"  style="overflow:visible;"/>
	</clipPath>
	<line class="st5" x1="24.8" y1="145.4" x2="24.8" y2="165.1"/>
	<line class="st5" x1="44.7" y1="163.7" x2="25" y2="163.7"/>
	<line class="st5" x1="44.7" y1="10.8" x2="23.4" y2="10.8"/>
	<line class="st5" x1="24.8" y1="31.8" x2="24.8" y2="12.1"/>
	<line class="st5" x1="400.6" y1="10.8" x2="380.9" y2="10.8"/>
	<line class="st5" x1="400.8" y1="31.8" x2="400.8" y2="9.4"/>
	<line class="st5" x1="400.6" y1="163.7" x2="380.9" y2="163.7"/>
	<line class="st5" x1="400.8" y1="165.1" x2="400.8" y2="145.4"/>
</g>
</svg>
