<?xml version="1.0" encoding="utf-8"?>
<!-- Generator: Adobe Illustrator 22.0.1, SVG Export Plug-In . SVG Version: 6.00 Build 0)  -->
<svg version="1.1" id="Layer_1" xmlns="http://www.w3.org/2000/svg" xmlns:xlink="http://www.w3.org/1999/xlink" x="0px" y="0px"
	 viewBox="0 0 424 172" style="enable-background:new 0 0 424 172;" xml:space="preserve">
<style type="text/css">
	.st0{enable-background:new    ;}
	.st1{fill:#231F20;}
	.st2{clip-path:url(#SVGID_2_);}
	.st3{clip-path:url(#SVGID_4_);}
	.st4{clip-path:url(#SVGID_6_);}
	.st5{clip-path:url(#SVGID_8_);}
	.st6{clip-path:url(#SVGID_10_);}
	.st7{clip-path:url(#SVGID_12_);}
	.st8{clip-path:url(#SVGID_14_);}
	.st9{clip-path:url(#SVGID_16_);}
</style>
<g class="st0">
	<path class="st1" d="M29,77l-2-0.1c0.2-2.1,0.3-3.3,0.2-5.7c-0.3-6.5-1.8-11.1-8.4-10.8c-4.1,0.2-8,2.7-7.7,10.6l0.2,3.6
		c0.2,5.5,3.5,10.5,8,16.4c4.7,6,10.8,13.9,11.1,21.9l0.2,4.2c0.4,8.1-3.5,12.6-10.5,13c-5.3,0.2-9.9-3.2-10.3-12.7
		c-0.1-3.3,0-5.6,0.1-6.9l1.9,0.1c-0.2,1.5-0.3,4-0.2,6.4c0.4,9.2,4,11.6,8.4,11.4c5.7-0.2,9.1-4.3,8.8-11l-0.2-3.9
		c-0.3-7.6-5.3-14.3-10.9-21.5c-4.3-5.5-8-10.2-8.3-17.1L9,71.5c-0.4-9.9,4-12.8,9.7-13c8.4-0.4,10.1,6.2,10.4,12.5
		C29.3,73.2,29.2,74.7,29,77z"/>
	<path class="st1" d="M63.9,99l-8.5,0.4l1.2,27.8l-2,0.1l-3-68.5l11-0.5c5.9-0.3,11,2.8,11.7,19.2C75,94.9,69.1,98.8,63.9,99z
		 M62.2,60.2l-8.5,0.4l1.6,36.9l8-0.4c4.7-0.2,9.6-4,8.9-19.6C71.6,62.4,67.4,60,62.2,60.2z"/>
	<path class="st1" d="M101.6,125.2l-2,0.1l-3-68.5l2-0.1L101.6,125.2z"/>
</g>
<g class="st0">
	<path class="st1" d="M136.7,125.2c-6.1,0.3-10.7-2.9-11.1-11.6l-2.1-47.1c-0.4-8.7,3.9-12.6,10-12.8c8.6-0.4,11.3,3.7,11.8,13.6
		c0.1,1.6,0,4.6-0.2,5.7l-2,0c0.2-1.9,0.2-4.1,0.2-5.5c-0.4-8.9-2.8-12.3-9.8-12c-4.3,0.2-8.3,3.3-8,10.4l2.1,48.1
		c0.3,7.1,4.5,9.6,8.9,9.4c6.5-0.3,9-4.6,8.6-12.5c-0.1-1.4-0.5-4.9-0.8-6.3l2.1-0.3c0.2,1.1,0.6,5,0.7,6.6
		C147.5,119.6,144.4,124.8,136.7,125.2z"/>
</g>
<g class="st0">
	<path class="st1" d="M185.4,52.9l-8.4,46l1,22.9l-2,0.1l-1-22.8l-12.5-45.2l2-0.1l11.3,42l7.5-42.8L185.4,52.9z"/>
</g>
<g class="st0">
	<path class="st1" d="M223.6,124.2l-16.9,0.7l-3.4-77.2l17-0.7c9.7-0.4,16.2,4.9,16.8,19c0.4,8.6-1.5,15-5.9,18.1
		c4.9,2.3,7.9,8.1,8.4,18.4C240.3,116.3,234.8,123.7,223.6,124.2z M219.3,57.8l-2.1,0.1l0.9,21.6l2.1-0.1c3.2-0.1,4.8-2,4.5-11.1
		C224.3,58.5,222.1,57.7,219.3,57.8z M219.8,90l-1.2,0.1l1,23.6l2.3-0.1c3.6-0.2,5.1-3,4.7-11.5C226.2,92.4,223.1,89.9,219.8,90z"/>
	<path class="st1" d="M284.9,106.5c0.5,10.8-5.9,16.5-15.8,16.9c-10.2,0.4-16.6-4.7-17.1-15.4l-2.7-62.3l13.3-0.6l2.8,63.6
		c0.1,2.9,1.7,4.4,4,4.3c2.1-0.1,3-1.6,2.8-4.7l-2.8-63.5l12.8-0.6L284.9,106.5z"/>
	<path class="st1" d="M319,120.2c-0.7-1.4-1-3-1.2-4.6c-0.5-6.7-0.6-9.2-0.9-14.2c-0.7-11.6-2.4-12.7-4-12.6L311,89l1.4,31.6
		l-13.4,0.6l-3.4-77.4l16.7-0.7c10.8-0.5,16.8,5.4,17.4,19.6c0.5,10.8-0.2,16.5-6.8,20.1c6,3.5,7,12.5,7.2,17.4l0.3,5.8
		c0.3,7.2,0.8,10,1.9,13.7L319,120.2z M311.3,53.7l-1.8,0.1l1.1,24.4l1.7-0.1c3-0.1,4.9-2.6,4.5-13
		C316.3,55.1,314.2,53.6,311.3,53.7z"/>
	<path class="st1" d="M375.5,117.8l-9.9,0.4L354,78.9l1.7,39.7l-11.1,0.5l-3.4-77.4l11.3-0.5l10,33.9l-1.5-34.3l11.1-0.5
		L375.5,117.8z"/>
	<path class="st1" d="M418.1,115.7l-30,1.3l-0.4-9.1l13.9-58.2l-14.9,0.6l-0.5-10.6l28.5-1.2l0.4,9.2l-13.2,58.1l15.7-0.7
		L418.1,115.7z"/>
</g>
<g>
	<g>
		<defs>
			<rect id="SVGID_1_" x="-130.3" y="9.4" width="688.5" height="155.7"/>
		</defs>
		<clipPath id="SVGID_2_">
			<use xlink:href="#SVGID_1_"  style="overflow:visible;"/>
		</clipPath>
		<g class="st2">
			<rect x="23.3" y="145.4" class="st1" width="3" height="19.7"/>
		</g>
	</g>
	<g>
		<defs>
			<rect id="SVGID_3_" x="-130.3" y="9.4" width="688.5" height="155.7"/>
		</defs>
		<clipPath id="SVGID_4_">
			<use xlink:href="#SVGID_3_"  style="overflow:visible;"/>
		</clipPath>
		<g class="st3">
			<rect x="25" y="162.2" class="st1" width="19.7" height="3"/>
		</g>
	</g>
	<g>
		<defs>
			<rect id="SVGID_5_" x="-130.3" y="9.4" width="688.5" height="155.7"/>
		</defs>
		<clipPath id="SVGID_6_">
			<use xlink:href="#SVGID_5_"  style="overflow:visible;"/>
		</clipPath>
		<g class="st4">
			<rect x="23.4" y="9.3" class="st1" width="21.3" height="3"/>
		</g>
	</g>
	<g>
		<defs>
			<rect id="SVGID_7_" x="-130.3" y="9.4" width="688.5" height="155.7"/>
		</defs>
		<clipPath id="SVGID_8_">
			<use xlink:href="#SVGID_7_"  style="overflow:visible;"/>
		</clipPath>
		<g class="st5">
			<rect x="23.3" y="12.1" class="st1" width="3" height="19.7"/>
		</g>
	</g>
	<g>
		<defs>
			<rect id="SVGID_9_" x="-130.3" y="9.4" width="688.5" height="155.7"/>
		</defs>
		<clipPath id="SVGID_10_">
			<use xlink:href="#SVGID_9_"  style="overflow:visible;"/>
		</clipPath>
		<g class="st6">
			<rect x="380.9" y="9.3" class="st1" width="19.7" height="3"/>
		</g>
	</g>
	<g>
		<defs>
			<rect id="SVGID_11_" x="-130.3" y="9.4" width="688.5" height="155.7"/>
		</defs>
		<clipPath id="SVGID_12_">
			<use xlink:href="#SVGID_11_"  style="overflow:visible;"/>
		</clipPath>
		<g class="st7">
			<rect x="399.3" y="9.4" class="st1" width="3" height="22.4"/>
		</g>
	</g>
	<g>
		<defs>
			<rect id="SVGID_13_" x="-130.3" y="9.4" width="688.5" height="155.7"/>
		</defs>
		<clipPath id="SVGID_14_">
			<use xlink:href="#SVGID_13_"  style="overflow:visible;"/>
		</clipPath>
		<g class="st8">
			<rect x="380.9" y="162.2" class="st1" width="19.7" height="3"/>
		</g>
	</g>
	<g>
		<defs>
			<rect id="SVGID_15_" x="-130.3" y="9.4" width="688.5" height="155.7"/>
		</defs>
		<clipPath id="SVGID_16_">
			<use xlink:href="#SVGID_15_"  style="overflow:visible;"/>
		</clipPath>
		<g class="st9">
			<rect x="399.3" y="145.4" class="st1" width="3" height="19.7"/>
		</g>
	</g>
</g>
</svg>
