<?xml version="1.0" encoding="utf-8"?>
<!-- Generator: Adobe Illustrator 22.0.1, SVG Export Plug-In . SVG Version: 6.00 Build 0)  -->
<svg version="1.1" id="Layer_1" xmlns="http://www.w3.org/2000/svg" xmlns:xlink="http://www.w3.org/1999/xlink" x="0px" y="0px"
	 viewBox="0 0 678.9 302.1" style="enable-background:new 0 0 678.9 302.1;" xml:space="preserve">
<style type="text/css">
	.st0{fill:#FFFFFF;}
	.st1{enable-background:new    ;}
</style>
<g>
	<g>
		<path d="M627.5,271.6H47.2V33.7h580.3V271.6z M50.2,268.6h574.3V36.7H50.2V268.6z"/>
	</g>
	<g>
		<rect x="20" y="67.4" class="st0" width="635.9" height="174.6"/>
	</g>
	<g>
		<rect x="79.3" y="32.3" class="st0" width="516.3" height="239.7"/>
	</g>
	<g class="st1">
		<path d="M55.2,136.9l-3.1-0.2c0.3-3.3,0.4-5.1,0.2-8.8c-0.4-10-2.8-17-12.9-16.6c-6.3,0.3-12.3,4.1-11.8,16.3l0.2,5.6
			c0.4,8.5,5.3,16.2,12.2,25.1c7.2,9.3,16.6,21.4,17.1,33.6l0.3,6.5c0.5,12.5-5.3,19.4-16.1,19.9c-8.2,0.4-15.2-4.9-15.9-19.6
			c-0.2-5.1-0.1-8.7,0.2-10.5l2.9,0.2c-0.4,2.3-0.5,6.2-0.3,9.8c0.6,14,6.2,17.8,12.8,17.5c8.8-0.4,13.9-6.6,13.5-16.8l-0.3-6
			c-0.5-11.7-8.1-21.9-16.8-33c-6.6-8.4-12.3-15.7-12.7-26.2l-0.2-5.1c-0.7-15.1,6.1-19.6,14.9-20c13-0.6,15.6,9.5,16,19.3
			C55.6,131,55.5,133.3,55.2,136.9z"/>
		<path d="M108.8,170.8l-13.1,0.6l1.9,42.6l-3.1,0.1L89.9,109l16.8-0.7c9.1-0.4,16.9,4.4,18,29.5
			C125.9,164.4,116.7,170.4,108.8,170.8z M106.2,111.2l-13.1,0.6l2.5,56.7l12.3-0.5c7.3-0.3,14.7-6.2,13.7-30.1
			C120.6,114.6,114.1,110.8,106.2,111.2z"/>
		<path d="M166.7,210.9l-3.1,0.1L159,105.9l3.1-0.1L166.7,210.9z"/>
	</g>
	<g class="st1">
		<path d="M220.6,210.9c-9.4,0.4-16.4-4.4-17-17.8l-3.2-72.2c-0.6-13.4,6-19.3,15.4-19.7c13.3-0.6,17.4,5.7,18.1,20.9
			c0.1,2.5,0,7.1-0.2,8.8h-3.1c0.3-3,0.3-6.4,0.2-8.5c-0.6-13.7-4.2-18.8-15-18.4c-6.6,0.3-12.8,5-12.3,16l3.2,73.8
			c0.5,11,7,14.7,13.6,14.4c10-0.4,13.8-7.1,13.2-19.1c-0.1-2.2-0.8-7.5-1.2-9.7l3.2-0.5c0.4,1.7,1,7.7,1.1,10.2
			C237.2,202.3,232.4,210.4,220.6,210.9z"/>
	</g>
	<g class="st1">
		<path d="M295.4,100l-12.8,70.6l1.5,35.2l-3.1,0.1l-1.5-35l-19.1-69.4l3.1-0.1l17.4,64.5l11.5-65.8L295.4,100z"/>
	</g>
	<g class="st1">
		<path d="M354,209.4l-25.9,1.1L322.9,92l26.1-1.1c14.8-0.6,24.9,7.6,25.9,29.2c0.6,13.3-2.2,23-9,27.8c7.6,3.5,12.1,12.5,12.8,28.2
			C379.6,197.3,371.1,208.6,354,209.4z M347.3,107.5l-3.2,0.1l1.4,33.2l3.2-0.1c4.9-0.2,7.4-3.1,6.8-17
			C355,108.5,351.7,107.3,347.3,107.5z M348.1,156.9l-1.9,0.1l1.6,36.3l3.5-0.2c5.6-0.2,7.8-4.7,7.3-17.6
			C358,160.5,353.2,156.7,348.1,156.9z"/>
		<path d="M448,182.2c0.7,16.5-9.1,25.3-24.2,26c-15.6,0.7-25.5-7.2-26.2-23.6l-4.2-95.7l20.4-0.9l4.3,97.7c0.2,4.5,2.6,6.7,6.2,6.5
			c3.2-0.1,4.5-2.5,4.3-7.1l-4.3-97.6l19.6-0.9L448,182.2z"/>
		<path d="M500.5,203.3c-1-2.1-1.6-4.6-1.9-7c-0.8-10.3-0.9-14.2-1.4-21.7c-1.1-17.7-3.6-19.5-6.1-19.4l-2.9,0.1l2.1,48.5l-20.5,0.9
			l-5.2-118.9l25.6-1.1c16.5-0.7,25.7,8.3,26.7,30.1c0.7,16.5-0.3,25.4-10.4,30.9c9.2,5.3,10.7,19.2,11.1,26.7l0.4,9
			c0.5,11.1,1.3,15.4,2.9,21.1L500.5,203.3z M488.6,101.1l-2.8,0.1l1.6,37.5l2.6-0.1c4.6-0.2,7.6-4,6.9-19.9
			C496.3,103.3,493.1,100.9,488.6,101.1z"/>
		<path d="M587.2,199.5l-15.1,0.7l-17.9-60.3l2.7,61l-17,0.7l-5.2-118.9l17.3-0.8l15.4,52.1l-2.3-52.6l17-0.7L587.2,199.5z"/>
		<path d="M652.5,196.4l-46,2l-0.6-14L627.2,95l-22.8,1l-0.7-16.2l43.7-1.9l0.6,14L627.7,181l24.1-1.1L652.5,196.4z"/>
	</g>
</g>
</svg>
